<svg width="417" height="173" fill="none" xmlns="http://www.w3.org/2000/svg"><g opacity=".3" filter="url(#filter0_f-455694)"><path d="M39.343 18.164c-3 170.679 155.068 144.069 230.583 115.201L247.38 79.687C189.52 111.899 57.466 127.91 39.343 18.164z" fill="url(#paint0_linear-801188)"/></g><mask id="a" maskUnits="userSpaceOnUse" x="212" y="43" width="132" height="110"><rect x="210.107" y="86.106" width="115.202" height="74.548" rx="7.009" transform="rotate(-22.993 210.107 86.106)" fill="#C4C4C4"/></mask><g mask="url(#a)"><path transform="rotate(-22.993 210.107 86.106)" fill="url(#paint1_radial-701022)" d="M210.107 86.106h115.202v74.548H210.107z"/><path d="M272.427 85.445l75.198 25.196-109.328 46.392 34.13-71.588z" fill="#000" fill-opacity=".04"/><path d="M282.238 112.505l-75.199-25.197 109.329-46.391-34.13 71.588z" fill="url(#paint2_linear-226020)"/></g><g opacity=".3" filter="url(#filter1_f-673808)"><path d="M10.793 128.081c23.75-95.304 107.635-56.976 145.304-29.687l-20.524 26.474c-27.358-26.518-98.364-55.082-124.78 3.213z" fill="url(#paint3_linear-932617)"/></g><mask id="b" maskUnits="userSpaceOnUse" x="117" y="83" width="76" height="72"><rect width="66.283" height="42.892" rx="4.033" transform="scale(-1 1) rotate(-37.993 81.054 343.798)" fill="#C4C4C4"/></mask><g mask="url(#b)"><path transform="scale(-1 1) rotate(-37.993 81.054 343.798)" fill="url(#paint4_radial-618929)" d="M0 0h66.283v42.892H0z"/><path d="M159.917 113.1l-45.544 2.805 53.852 42.063-8.308-44.868z" fill="#000" fill-opacity=".03"/><path d="M150.435 126.679l45.544-2.805-53.851-42.063 8.307 44.868z" fill="url(#paint5_linear-930783)"/></g><defs><linearGradient id="paint0_linear-801188" x1="236.616" y1="117.944" x2="17.586" y2="123.142" gradientUnits="userSpaceOnUse"><stop stop-color="#F0EDE9"/><stop offset=".886" stop-color="#fff" stop-opacity="0"/></linearGradient><linearGradient id="paint2_linear-226020" x1="219.154" y1="89.876" x2="317.146" y2="38.671" gradientUnits="userSpaceOnUse"><stop stop-color="#AFA69C"/><stop offset="1" stop-color="#141414"/></linearGradient><linearGradient id="paint3_linear-932617" x1="135.289" y1="102.004" x2="14.335" y2="66.498" gradientUnits="userSpaceOnUse"><stop stop-color="#F0EDE9"/><stop offset=".886" stop-color="#fff" stop-opacity="0"/></linearGradient><linearGradient id="paint5_linear-930783" x1="217.196" y1="139.611" x2="142.029" y2="80.447" gradientUnits="userSpaceOnUse"><stop stop-color="#141414"/><stop offset="1" stop-color="#AFA69C"/></linearGradient><radialGradient id="paint1_radial-701022" cx="0" cy="0" r="1" gradientUnits="userSpaceOnUse" gradientTransform="rotate(147.271 148.252 91.956) scale(132.876 171.561)"><stop stop-color="#131313"/><stop offset=".474" stop-color="#59554F"/><stop offset="1" stop-color="#E2D4C4"/></radialGradient><radialGradient id="paint4_radial-618929" cx="0" cy="0" r="1" gradientUnits="userSpaceOnUse" gradientTransform="matrix(-97.88762 67.11292 -86.6522 -126.38666 64.773 1.756)"><stop stop-color="#E2D4C4"/><stop offset=".474" stop-color="#59554F"/><stop offset="1" stop-color="#131313"/></radialGradient><filter id="filter0_f-455694" x="21.229" y=".093" width="266.768" height="172.584" filterUnits="userSpaceOnUse" color-interpolation-filters="sRGB"><feFlood flood-opacity="0" result="BackgroundImageFix"/><feBlend in="SourceGraphic" in2="BackgroundImageFix" result="shape"/><feGaussianBlur stdDeviation="9.036" result="effect1_foregroundBlur"/></filter><filter id="filter1_f-673808" x=".396" y="56.811" width="166.099" height="81.667" filterUnits="userSpaceOnUse" color-interpolation-filters="sRGB"><feFlood flood-opacity="0" result="BackgroundImageFix"/><feBlend in="SourceGraphic" in2="BackgroundImageFix" result="shape"/><feGaussianBlur stdDeviation="5.199" result="effect1_foregroundBlur"/></filter></defs></svg>